<svg xmlns="http://www.w3.org/2000/svg" width="98.826" height="73.807" viewBox="0 0 98.826 73.807">
  <g id="iconfinder_code_coding_html_css_programming_3994346" transform="translate(0 -12.012)">
    <path id="Path_5" data-name="Path 5" d="M24.845,25.448a5.863,5.863,0,0,0-8.449.791L1.4,44.921a6.393,6.393,0,0,0,0,7.979l15,18.682a5.849,5.849,0,0,0,8.449.79,6.39,6.39,0,0,0,.762-8.769l-11.8-14.693,11.8-14.693a6.392,6.392,0,0,0-.762-8.77Z" fill="#051f5b"/>
    <path id="Path_6" data-name="Path 6" d="M55.171,12.122a6.063,6.063,0,0,0-7.054,4.83l-12,61.515a6.263,6.263,0,0,0,.89,4.62A5.98,5.98,0,0,0,40.829,85.7a5.57,5.57,0,0,0,1.184.12,6.035,6.035,0,0,0,5.871-4.949l12-61.515a6.263,6.263,0,0,0-.89-4.62,5.98,5.98,0,0,0-3.821-2.613Z" transform="translate(1.413)" fill="#051f5b"/>
    <path id="Path_7" data-name="Path 7" d="M94.6,44.921l-15-18.682a5.849,5.849,0,0,0-8.449-.79,6.39,6.39,0,0,0-.762,8.769l11.8,14.693L70.393,63.6a6.39,6.39,0,0,0,.761,8.769,5.849,5.849,0,0,0,8.449-.79L94.6,52.9A6.393,6.393,0,0,0,94.6,44.921Z" transform="translate(2.826)" fill="#051f5b"/>
  </g>
</svg>
