<svg xmlns="http://www.w3.org/2000/svg" xmlns:xlink="http://www.w3.org/1999/xlink" width="98" height="74" viewBox="0 0 98 74">
  <defs>
    <clipPath id="clip-path">
      <rect id="Rectangle_19" data-name="Rectangle 19" width="98" height="74" transform="translate(239 787)" fill="#fff" stroke="#707070" stroke-width="1"/>
    </clipPath>
  </defs>
  <g id="Mask_Group_1" data-name="Mask Group 1" transform="translate(-239 -787)" clip-path="url(#clip-path)">
    <g id="adaptive_responsive_design_1_" transform="translate(247.172 781.897)">
      <g id="Group_6" data-name="Group 6">
        <g id="Group_5" data-name="Group 5">
          <path id="Path_9" data-name="Path 9" d="M3.828,51.034a1.276,1.276,0,0,1-1.276-1.276V8.931A3.832,3.832,0,0,1,6.379,5.1h68.9A3.832,3.832,0,0,1,79.1,8.931v3.828a1.276,1.276,0,1,1-2.552,0V8.931a1.28,1.28,0,0,0-1.276-1.276H6.379A1.28,1.28,0,0,0,5.1,8.931V49.759A1.276,1.276,0,0,1,3.828,51.034Z" fill="#263238"/>
        </g>
        <path id="Path_10" data-name="Path 10" d="M40.828,79.1H26.793a1.276,1.276,0,1,1,0-2.552h2.552a3.832,3.832,0,0,0,3.828-3.828V66.345a1.276,1.276,0,0,1,2.552,0v6.379a6.351,6.351,0,0,1-1.278,3.828h6.382a1.276,1.276,0,1,1,0,2.552Z" fill="#263238"/>
        <path id="Path_11" data-name="Path 11" d="M39.552,66.345H6.379a3.832,3.832,0,0,1-3.828-3.828V54.862a1.276,1.276,0,0,1,1.276-1.276H39.552a1.276,1.276,0,1,1,0,2.552H5.1v6.379a1.28,1.28,0,0,0,1.276,1.276H39.552a1.276,1.276,0,1,1,0,2.552Z" fill="#263238"/>
      </g>
      <g id="Group_11" data-name="Group 11">
        <g id="Group_8" data-name="Group 8">
          <g id="Group_7" data-name="Group 7">
            <path id="Path_12" data-name="Path 12" d="M54.862,22.966H67.621a1.276,1.276,0,1,0,0-2.552H54.862a1.276,1.276,0,1,0,0,2.552Z" fill="#263238"/>
          </g>
        </g>
        <g id="Group_10" data-name="Group 10">
          <g id="Group_9" data-name="Group 9">
            <path id="Path_13" data-name="Path 13" d="M59.966,74h2.552a1.276,1.276,0,1,0,0-2.552H59.966a1.276,1.276,0,1,0,0,2.552Z" fill="#263238"/>
          </g>
        </g>
        <path id="Path_14" data-name="Path 14" d="M72.724,79.1H49.759a6.385,6.385,0,0,1-6.379-6.379V21.69a6.385,6.385,0,0,1,6.379-6.379H72.724A6.385,6.385,0,0,1,79.1,21.69V72.724A6.385,6.385,0,0,1,72.724,79.1ZM49.759,17.862a3.832,3.832,0,0,0-3.828,3.828V72.724a3.832,3.832,0,0,0,3.828,3.828H72.724a3.832,3.832,0,0,0,3.828-3.828V21.69a3.832,3.832,0,0,0-3.828-3.828Z" fill="#263238"/>
      </g>
    </g>
  </g>
</svg>
